<mxfile host="www.draw.io" modified="2019-12-14T07:49:11.535Z" agent="Mozilla/5.0 (Windows NT 10.0; Win64; x64) AppleWebKit/537.36 (KHTML, like Gecko) Chrome/79.0.3945.79 Safari/537.36" etag="fb1WRtNVijAUmHMiFmlY" version="12.4.1" type="github" pages="1">
  <diagram id="Ys3HZVprmhT14fWjxTii" name="Page-1">
    <mxGraphModel dx="403" dy="1383" grid="1" gridSize="10" guides="1" tooltips="1" connect="1" arrows="1" fold="1" page="1" pageScale="1" pageWidth="850" pageHeight="1100" math="0" shadow="0">
      <root>
        <mxCell id="0"/>
        <mxCell id="1" parent="0"/>
        <mxCell id="eypmZCzVEFvatwe-Ak_w-18" style="edgeStyle=orthogonalEdgeStyle;rounded=0;orthogonalLoop=1;jettySize=auto;html=1;entryX=0;entryY=0.5;entryDx=0;entryDy=0;" edge="1" parent="1" source="Z5_UFI_bqKNKYEiBKsY_-33" target="eypmZCzVEFvatwe-Ak_w-5">
          <mxGeometry relative="1" as="geometry"/>
        </mxCell>
        <mxCell id="Z5_UFI_bqKNKYEiBKsY_-33" value="Class: Sequence_Set" style="swimlane;fontStyle=1;align=center;verticalAlign=top;childLayout=stackLayout;horizontal=1;startSize=26;horizontalStack=0;resizeParent=1;resizeParentMax=0;resizeLast=0;collapsible=1;marginBottom=0;" parent="1" vertex="1">
          <mxGeometry x="20" y="20" width="190" height="350" as="geometry"/>
        </mxCell>
        <mxCell id="Z5_UFI_bqKNKYEiBKsY_-34" value="Block" style="text;strokeColor=none;fillColor=none;align=left;verticalAlign=top;spacingLeft=4;spacingRight=4;overflow=hidden;rotatable=0;points=[[0,0.5],[1,0.5]];portConstraint=eastwest;" parent="Z5_UFI_bqKNKYEiBKsY_-33" vertex="1">
          <mxGeometry y="26" width="190" height="26" as="geometry"/>
        </mxCell>
        <mxCell id="Z5_UFI_bqKNKYEiBKsY_-35" value="" style="line;strokeWidth=1;fillColor=none;align=left;verticalAlign=middle;spacingTop=-1;spacingLeft=3;spacingRight=3;rotatable=0;labelPosition=right;points=[];portConstraint=eastwest;" parent="Z5_UFI_bqKNKYEiBKsY_-33" vertex="1">
          <mxGeometry y="52" width="190" height="8" as="geometry"/>
        </mxCell>
        <mxCell id="Z5_UFI_bqKNKYEiBKsY_-36" value="+ Sequence_Set()&#xa;~Sequence_Set()&#xa;create()&#xa;- open_sequence_set()&#xa;- close()&#xa;- bool: is_empty(block)&#xa;- bool: is_empty(record)&#xa;+ search(string)&#xa;+ search(string, string parameter)&#xa;- populate()&#xa;+ insert(record)&#xa;+ insert(string pKey)&#xa;+ delete(string pKey)&#xa;+ update(string pKey)&#xa;+ update(string pKey, string field)&#xa;+ display_record()&#xa;+ display_record(string pKey)&#xa;+ display_SS()&#xa;+ validate()" style="text;strokeColor=none;fillColor=none;align=left;verticalAlign=top;spacingLeft=4;spacingRight=4;overflow=hidden;rotatable=0;points=[[0,0.5],[1,0.5]];portConstraint=eastwest;" parent="Z5_UFI_bqKNKYEiBKsY_-33" vertex="1">
          <mxGeometry y="60" width="190" height="290" as="geometry"/>
        </mxCell>
        <mxCell id="eypmZCzVEFvatwe-Ak_w-30" style="edgeStyle=orthogonalEdgeStyle;rounded=0;orthogonalLoop=1;jettySize=auto;html=1;exitX=1;exitY=0.5;exitDx=0;exitDy=0;entryX=-0.001;entryY=-0.008;entryDx=0;entryDy=0;entryPerimeter=0;" edge="1" parent="1" source="Z5_UFI_bqKNKYEiBKsY_-37" target="eypmZCzVEFvatwe-Ak_w-29">
          <mxGeometry relative="1" as="geometry">
            <Array as="points">
              <mxPoint x="560" y="330"/>
              <mxPoint x="560" y="347"/>
            </Array>
          </mxGeometry>
        </mxCell>
        <mxCell id="Z5_UFI_bqKNKYEiBKsY_-37" value="Class: Block" style="swimlane;fontStyle=1;align=center;verticalAlign=top;childLayout=stackLayout;horizontal=1;startSize=26;horizontalStack=0;resizeParent=1;resizeParentMax=0;resizeLast=0;collapsible=1;marginBottom=0;" parent="1" vertex="1">
          <mxGeometry x="250" y="210" width="280" height="240" as="geometry"/>
        </mxCell>
        <mxCell id="Z5_UFI_bqKNKYEiBKsY_-38" value="long long unsigned int: relative block number&#xa;Record: record_array[4]&#xa;int: recordCount [0, 4]&#xa;int: nextBlock&#xa;int: prevBlock" style="text;strokeColor=none;fillColor=none;align=left;verticalAlign=top;spacingLeft=4;spacingRight=4;overflow=hidden;rotatable=0;points=[[0,0.5],[1,0.5]];portConstraint=eastwest;" parent="Z5_UFI_bqKNKYEiBKsY_-37" vertex="1">
          <mxGeometry y="26" width="280" height="84" as="geometry"/>
        </mxCell>
        <mxCell id="Z5_UFI_bqKNKYEiBKsY_-39" value="" style="line;strokeWidth=1;fillColor=none;align=left;verticalAlign=middle;spacingTop=-1;spacingLeft=3;spacingRight=3;rotatable=0;labelPosition=right;points=[];portConstraint=eastwest;" parent="Z5_UFI_bqKNKYEiBKsY_-37" vertex="1">
          <mxGeometry y="110" width="280" height="8" as="geometry"/>
        </mxCell>
        <mxCell id="Z5_UFI_bqKNKYEiBKsY_-40" value="+ write(fstream)&#xa;+ search(string primaryKey)&#xa;+ getNextBlock()&#xa;+ deleteRecord(string pKey)&#xa;+ addRecord(string pKey)&#xa;- moveAroundRecord(string pKey)" style="text;strokeColor=none;fillColor=none;align=left;verticalAlign=top;spacingLeft=4;spacingRight=4;overflow=hidden;rotatable=0;points=[[0,0.5],[1,0.5]];portConstraint=eastwest;" parent="Z5_UFI_bqKNKYEiBKsY_-37" vertex="1">
          <mxGeometry y="118" width="280" height="122" as="geometry"/>
        </mxCell>
        <mxCell id="Z5_UFI_bqKNKYEiBKsY_-41" value="" style="edgeStyle=orthogonalEdgeStyle;rounded=0;orthogonalLoop=1;jettySize=auto;html=1;" parent="1" source="Z5_UFI_bqKNKYEiBKsY_-42" target="Z5_UFI_bqKNKYEiBKsY_-46" edge="1">
          <mxGeometry relative="1" as="geometry"/>
        </mxCell>
        <mxCell id="Z5_UFI_bqKNKYEiBKsY_-42" value="Class: Record" style="swimlane;fontStyle=1;align=center;verticalAlign=top;childLayout=stackLayout;horizontal=1;startSize=26;horizontalStack=0;resizeParent=1;resizeParentMax=0;resizeLast=0;collapsible=1;marginBottom=0;" parent="1" vertex="1">
          <mxGeometry x="60" y="690" width="190" height="250" as="geometry"/>
        </mxCell>
        <mxCell id="Z5_UFI_bqKNKYEiBKsY_-43" value="bool: isEmpty&#xa;string: zip_code&#xa;string: place_name&#xa;string: state&#xa;string: county&#xa;Grid: gridPoint&#xa;" style="text;strokeColor=none;fillColor=none;align=left;verticalAlign=top;spacingLeft=4;spacingRight=4;overflow=hidden;rotatable=0;points=[[0,0.5],[1,0.5]];portConstraint=eastwest;" parent="Z5_UFI_bqKNKYEiBKsY_-42" vertex="1">
          <mxGeometry y="26" width="190" height="94" as="geometry"/>
        </mxCell>
        <mxCell id="Z5_UFI_bqKNKYEiBKsY_-44" value="" style="line;strokeWidth=1;fillColor=none;align=left;verticalAlign=middle;spacingTop=-1;spacingLeft=3;spacingRight=3;rotatable=0;labelPosition=right;points=[];portConstraint=eastwest;" parent="Z5_UFI_bqKNKYEiBKsY_-42" vertex="1">
          <mxGeometry y="120" width="190" height="8" as="geometry"/>
        </mxCell>
        <mxCell id="Z5_UFI_bqKNKYEiBKsY_-45" value="+ void: display()&#xa;+ void: display(string parameter)&#xa;+ string: get_zip_code()&#xa;+ string: get_place_name()&#xa;+ string: get_state()&#xa;+ string: get_county()&#xa;+ float: get_latitude()&#xa;+ float: get_longitude()" style="text;strokeColor=none;fillColor=none;align=left;verticalAlign=top;spacingLeft=4;spacingRight=4;overflow=hidden;rotatable=0;points=[[0,0.5],[1,0.5]];portConstraint=eastwest;" parent="Z5_UFI_bqKNKYEiBKsY_-42" vertex="1">
          <mxGeometry y="128" width="190" height="122" as="geometry"/>
        </mxCell>
        <mxCell id="Z5_UFI_bqKNKYEiBKsY_-46" value="Class: Grid" style="swimlane;fontStyle=1;align=center;verticalAlign=top;childLayout=stackLayout;horizontal=1;startSize=26;horizontalStack=0;resizeParent=1;resizeParentMax=0;resizeLast=0;collapsible=1;marginBottom=0;" parent="1" vertex="1">
          <mxGeometry x="75" y="980" width="160" height="120" as="geometry"/>
        </mxCell>
        <mxCell id="Z5_UFI_bqKNKYEiBKsY_-47" value="float: latitude&#xa;float: longitude&#xa;" style="text;strokeColor=none;fillColor=none;align=left;verticalAlign=top;spacingLeft=4;spacingRight=4;overflow=hidden;rotatable=0;points=[[0,0.5],[1,0.5]];portConstraint=eastwest;" parent="Z5_UFI_bqKNKYEiBKsY_-46" vertex="1">
          <mxGeometry y="26" width="160" height="34" as="geometry"/>
        </mxCell>
        <mxCell id="Z5_UFI_bqKNKYEiBKsY_-48" value="" style="line;strokeWidth=1;fillColor=none;align=left;verticalAlign=middle;spacingTop=-1;spacingLeft=3;spacingRight=3;rotatable=0;labelPosition=right;points=[];portConstraint=eastwest;" parent="Z5_UFI_bqKNKYEiBKsY_-46" vertex="1">
          <mxGeometry y="60" width="160" height="8" as="geometry"/>
        </mxCell>
        <mxCell id="Z5_UFI_bqKNKYEiBKsY_-49" value="+ float: get_latitude()&#xa;+ float: get_longitude()&#xa;+ float: getDistance(Grid)" style="text;strokeColor=none;fillColor=none;align=left;verticalAlign=top;spacingLeft=4;spacingRight=4;overflow=hidden;rotatable=0;points=[[0,0.5],[1,0.5]];portConstraint=eastwest;" parent="Z5_UFI_bqKNKYEiBKsY_-46" vertex="1">
          <mxGeometry y="68" width="160" height="52" as="geometry"/>
        </mxCell>
        <mxCell id="DVvHBo7GHHYjL-niLT4N-1" style="edgeStyle=orthogonalEdgeStyle;rounded=0;orthogonalLoop=1;jettySize=auto;html=1;exitX=0.363;exitY=1.008;exitDx=0;exitDy=0;exitPerimeter=0;" parent="1" source="eypmZCzVEFvatwe-Ak_w-29" target="Z5_UFI_bqKNKYEiBKsY_-42" edge="1">
          <mxGeometry relative="1" as="geometry">
            <mxPoint x="610" y="564.7058823529412" as="sourcePoint"/>
            <Array as="points">
              <mxPoint x="662" y="530"/>
              <mxPoint x="155" y="530"/>
            </Array>
          </mxGeometry>
        </mxCell>
        <mxCell id="DVvHBo7GHHYjL-niLT4N-5" style="edgeStyle=orthogonalEdgeStyle;rounded=0;orthogonalLoop=1;jettySize=auto;html=1;exitX=1;exitY=0.5;exitDx=0;exitDy=0;entryX=0.01;entryY=0.157;entryDx=0;entryDy=0;entryPerimeter=0;" parent="1" source="Z5_UFI_bqKNKYEiBKsY_-34" target="Z5_UFI_bqKNKYEiBKsY_-38" edge="1">
          <mxGeometry relative="1" as="geometry"/>
        </mxCell>
        <mxCell id="eypmZCzVEFvatwe-Ak_w-2" value="Struct: Handler" style="swimlane;fontStyle=1;align=center;verticalAlign=top;childLayout=stackLayout;horizontal=1;startSize=26;horizontalStack=0;resizeParent=1;resizeParentMax=0;resizeLast=0;collapsible=1;marginBottom=0;" vertex="1" parent="1">
          <mxGeometry x="250" y="-180" width="160" height="120" as="geometry"/>
        </mxCell>
        <mxCell id="eypmZCzVEFvatwe-Ak_w-3" value="+ Node: root" style="text;strokeColor=none;fillColor=none;align=left;verticalAlign=top;spacingLeft=4;spacingRight=4;overflow=hidden;rotatable=0;points=[[0,0.5],[1,0.5]];portConstraint=eastwest;" vertex="1" parent="eypmZCzVEFvatwe-Ak_w-2">
          <mxGeometry y="26" width="160" height="34" as="geometry"/>
        </mxCell>
        <mxCell id="eypmZCzVEFvatwe-Ak_w-4" value="" style="line;strokeWidth=1;fillColor=none;align=left;verticalAlign=middle;spacingTop=-1;spacingLeft=3;spacingRight=3;rotatable=0;labelPosition=right;points=[];portConstraint=eastwest;" vertex="1" parent="eypmZCzVEFvatwe-Ak_w-2">
          <mxGeometry y="60" width="160" height="8" as="geometry"/>
        </mxCell>
        <mxCell id="eypmZCzVEFvatwe-Ak_w-5" value="+ DisplayRoot()&#xa;+ GetLeastNode()&#xa;+ GetGreatestNode()&#xa;+ Search()" style="text;strokeColor=none;fillColor=none;align=left;verticalAlign=top;spacingLeft=4;spacingRight=4;overflow=hidden;rotatable=0;points=[[0,0.5],[1,0.5]];portConstraint=eastwest;" vertex="1" parent="eypmZCzVEFvatwe-Ak_w-2">
          <mxGeometry y="68" width="160" height="52" as="geometry"/>
        </mxCell>
        <mxCell id="eypmZCzVEFvatwe-Ak_w-13" style="edgeStyle=orthogonalEdgeStyle;rounded=0;orthogonalLoop=1;jettySize=auto;html=1;entryX=0.25;entryY=0;entryDx=0;entryDy=0;exitX=0.011;exitY=0.995;exitDx=0;exitDy=0;exitPerimeter=0;" edge="1" parent="1" source="Z5_UFI_bqKNKYEiBKsY_-36" target="Z5_UFI_bqKNKYEiBKsY_-42">
          <mxGeometry relative="1" as="geometry">
            <Array as="points">
              <mxPoint x="22" y="530"/>
              <mxPoint x="108" y="530"/>
            </Array>
          </mxGeometry>
        </mxCell>
        <mxCell id="eypmZCzVEFvatwe-Ak_w-20" style="edgeStyle=orthogonalEdgeStyle;rounded=0;orthogonalLoop=1;jettySize=auto;html=1;entryX=0.5;entryY=0;entryDx=0;entryDy=0;" edge="1" parent="1" source="eypmZCzVEFvatwe-Ak_w-14" target="Z5_UFI_bqKNKYEiBKsY_-37">
          <mxGeometry relative="1" as="geometry"/>
        </mxCell>
        <mxCell id="eypmZCzVEFvatwe-Ak_w-14" value="Struct: Node" style="swimlane;fontStyle=1;align=center;verticalAlign=top;childLayout=stackLayout;horizontal=1;startSize=26;horizontalStack=0;resizeParent=1;resizeParentMax=0;resizeLast=0;collapsible=1;marginBottom=0;" vertex="1" parent="1">
          <mxGeometry x="430" y="-30" width="160" height="200" as="geometry"/>
        </mxCell>
        <mxCell id="eypmZCzVEFvatwe-Ak_w-15" value="+ node * LNode&#xa;+ node * MNode&#xa;+ node * RNode&#xa;+ node * TNode&#xa;+ AData&#xa;+ BData&#xa;+ TData" style="text;strokeColor=none;fillColor=none;align=left;verticalAlign=top;spacingLeft=4;spacingRight=4;overflow=hidden;rotatable=0;points=[[0,0.5],[1,0.5]];portConstraint=eastwest;" vertex="1" parent="eypmZCzVEFvatwe-Ak_w-14">
          <mxGeometry y="26" width="160" height="114" as="geometry"/>
        </mxCell>
        <mxCell id="eypmZCzVEFvatwe-Ak_w-16" value="" style="line;strokeWidth=1;fillColor=none;align=left;verticalAlign=middle;spacingTop=-1;spacingLeft=3;spacingRight=3;rotatable=0;labelPosition=right;points=[];portConstraint=eastwest;" vertex="1" parent="eypmZCzVEFvatwe-Ak_w-14">
          <mxGeometry y="140" width="160" height="8" as="geometry"/>
        </mxCell>
        <mxCell id="eypmZCzVEFvatwe-Ak_w-17" value="+ bool Insert()&#xa;+ Node * Split()&#xa;+ void DisplayNode()" style="text;strokeColor=none;fillColor=none;align=left;verticalAlign=top;spacingLeft=4;spacingRight=4;overflow=hidden;rotatable=0;points=[[0,0.5],[1,0.5]];portConstraint=eastwest;" vertex="1" parent="eypmZCzVEFvatwe-Ak_w-14">
          <mxGeometry y="148" width="160" height="52" as="geometry"/>
        </mxCell>
        <mxCell id="eypmZCzVEFvatwe-Ak_w-19" style="edgeStyle=orthogonalEdgeStyle;rounded=0;orthogonalLoop=1;jettySize=auto;html=1;exitX=1;exitY=0.5;exitDx=0;exitDy=0;entryX=0.5;entryY=0;entryDx=0;entryDy=0;" edge="1" parent="1" source="eypmZCzVEFvatwe-Ak_w-3" target="eypmZCzVEFvatwe-Ak_w-14">
          <mxGeometry relative="1" as="geometry"/>
        </mxCell>
        <mxCell id="eypmZCzVEFvatwe-Ak_w-26" value="Class: Block" style="swimlane;fontStyle=1;align=center;verticalAlign=top;childLayout=stackLayout;horizontal=1;startSize=26;horizontalStack=0;resizeParent=1;resizeParentMax=0;resizeLast=0;collapsible=1;marginBottom=0;" vertex="1" parent="1">
          <mxGeometry x="590" y="230" width="280" height="240" as="geometry"/>
        </mxCell>
        <mxCell id="eypmZCzVEFvatwe-Ak_w-27" value="long long unsigned int: relative block number&#xa;Record: record_array[4]&#xa;int: recordCount [0, 4]&#xa;int: nextBlock&#xa;int: prevBlock" style="text;strokeColor=none;fillColor=none;align=left;verticalAlign=top;spacingLeft=4;spacingRight=4;overflow=hidden;rotatable=0;points=[[0,0.5],[1,0.5]];portConstraint=eastwest;" vertex="1" parent="eypmZCzVEFvatwe-Ak_w-26">
          <mxGeometry y="26" width="280" height="84" as="geometry"/>
        </mxCell>
        <mxCell id="eypmZCzVEFvatwe-Ak_w-28" value="" style="line;strokeWidth=1;fillColor=none;align=left;verticalAlign=middle;spacingTop=-1;spacingLeft=3;spacingRight=3;rotatable=0;labelPosition=right;points=[];portConstraint=eastwest;" vertex="1" parent="eypmZCzVEFvatwe-Ak_w-26">
          <mxGeometry y="110" width="280" height="8" as="geometry"/>
        </mxCell>
        <mxCell id="eypmZCzVEFvatwe-Ak_w-29" value="+ write(fstream)&#xa;+ search(string primaryKey)&#xa;+ getNextBlock()&#xa;+ deleteRecord(string pKey)&#xa;+ addRecord(string pKey)&#xa;- moveAroundRecord(string pKey)" style="text;strokeColor=none;fillColor=none;align=left;verticalAlign=top;spacingLeft=4;spacingRight=4;overflow=hidden;rotatable=0;points=[[0,0.5],[1,0.5]];portConstraint=eastwest;" vertex="1" parent="eypmZCzVEFvatwe-Ak_w-26">
          <mxGeometry y="118" width="280" height="122" as="geometry"/>
        </mxCell>
      </root>
    </mxGraphModel>
  </diagram>
</mxfile>
